<?xml version="1.0" encoding="UTF-8"?>
<svg xmlns="http://www.w3.org/2000/svg" width="400" height="400" viewBox="0 0 100 100">
  <circle cx="4" cy="4" r="2" fill="#000" fill-opacity="0.45"/>
  <circle cx="12" cy="4" r="2" fill="#000" fill-opacity="0.45"/>
  <circle cx="20" cy="4" r="2" fill="#000" fill-opacity="0.45"/>
  <circle cx="28" cy="4" r="2" fill="#000" fill-opacity="0.45"/>
  <circle cx="36" cy="4" r="2" fill="#000" fill-opacity="0.45"/>
  <circle cx="44" cy="4" r="2" fill="#000" fill-opacity="0.45"/>
  <circle cx="52" cy="4" r="2" fill="#000" fill-opacity="0.45"/>
  <circle cx="60" cy="4" r="2" fill="#000" fill-opacity="0.45"/>
  <circle cx="68" cy="4" r="2" fill="#000" fill-opacity="0.45"/>
  <circle cx="76" cy="4" r="2" fill="#000" fill-opacity="0.45"/>
  <circle cx="84" cy="4" r="2" fill="#000" fill-opacity="0.45"/>
  <circle cx="92" cy="4" r="2" fill="#000" fill-opacity="0.45"/>
  <circle cx="8" cy="12" r="2" fill="#000" fill-opacity="0.45"/>
  <circle cx="16" cy="12" r="2" fill="#000" fill-opacity="0.45"/>
  <circle cx="24" cy="12" r="2" fill="#000" fill-opacity="0.45"/>
  <circle cx="32" cy="12" r="2" fill="#000" fill-opacity="0.45"/>
  <circle cx="40" cy="12" r="2" fill="#000" fill-opacity="0.45"/>
  <circle cx="48" cy="12" r="2" fill="#000" fill-opacity="0.45"/>
  <circle cx="56" cy="12" r="2" fill="#000" fill-opacity="0.45"/>
  <circle cx="64" cy="12" r="2" fill="#000" fill-opacity="0.45"/>
  <circle cx="72" cy="12" r="2" fill="#000" fill-opacity="0.45"/>
  <circle cx="80" cy="12" r="2" fill="#000" fill-opacity="0.45"/>
  <circle cx="88" cy="12" r="2" fill="#000" fill-opacity="0.45"/>
  <circle cx="96" cy="12" r="2" fill="#000" fill-opacity="0.45"/>
  <circle cx="4" cy="20" r="2" fill="#000" fill-opacity="0.45"/>
  <circle cx="12" cy="20" r="2" fill="#000" fill-opacity="0.45"/>
  <circle cx="20" cy="20" r="2" fill="#000" fill-opacity="0.45"/>
  <circle cx="28" cy="20" r="2" fill="#000" fill-opacity="0.45"/>
  <circle cx="36" cy="20" r="2" fill="#000" fill-opacity="0.45"/>
  <circle cx="44" cy="20" r="2" fill="#000" fill-opacity="0.45"/>
  <circle cx="52" cy="20" r="2" fill="#000" fill-opacity="0.45"/>
  <circle cx="60" cy="20" r="2" fill="#000" fill-opacity="0.45"/>
  <circle cx="68" cy="20" r="2" fill="#000" fill-opacity="0.45"/>
  <circle cx="76" cy="20" r="2" fill="#000" fill-opacity="0.45"/>
  <circle cx="84" cy="20" r="2" fill="#000" fill-opacity="0.45"/>
  <circle cx="92" cy="20" r="2" fill="#000" fill-opacity="0.45"/>
  <circle cx="8" cy="28" r="2" fill="#000" fill-opacity="0.45"/>
  <circle cx="16" cy="28" r="2" fill="#000" fill-opacity="0.45"/>
  <circle cx="24" cy="28" r="2" fill="#000" fill-opacity="0.45"/>
  <circle cx="32" cy="28" r="2" fill="#000" fill-opacity="0.45"/>
  <circle cx="40" cy="28" r="2" fill="#000" fill-opacity="0.45"/>
  <circle cx="48" cy="28" r="2" fill="#000" fill-opacity="0.45"/>
  <circle cx="56" cy="28" r="2" fill="#000" fill-opacity="0.45"/>
  <circle cx="64" cy="28" r="2" fill="#000" fill-opacity="0.45"/>
  <circle cx="72" cy="28" r="2" fill="#000" fill-opacity="0.45"/>
  <circle cx="80" cy="28" r="2" fill="#000" fill-opacity="0.45"/>
  <circle cx="88" cy="28" r="2" fill="#000" fill-opacity="0.45"/>
  <circle cx="96" cy="28" r="2" fill="#000" fill-opacity="0.45"/>
  <circle cx="4" cy="36" r="2" fill="#000" fill-opacity="0.45"/>
  <circle cx="12" cy="36" r="2" fill="#000" fill-opacity="0.45"/>
  <circle cx="20" cy="36" r="2" fill="#000" fill-opacity="0.45"/>
  <circle cx="28" cy="36" r="2" fill="#000" fill-opacity="0.45"/>
  <circle cx="36" cy="36" r="2" fill="#000" fill-opacity="0.45"/>
  <circle cx="44" cy="36" r="2" fill="#000" fill-opacity="0.45"/>
  <circle cx="52" cy="36" r="2" fill="#000" fill-opacity="0.45"/>
  <circle cx="60" cy="36" r="2" fill="#000" fill-opacity="0.45"/>
  <circle cx="68" cy="36" r="2" fill="#000" fill-opacity="0.45"/>
  <circle cx="76" cy="36" r="2" fill="#000" fill-opacity="0.45"/>
  <circle cx="84" cy="36" r="2" fill="#000" fill-opacity="0.45"/>
  <circle cx="92" cy="36" r="2" fill="#000" fill-opacity="0.45"/>
  <circle cx="8" cy="44" r="2" fill="#000" fill-opacity="0.45"/>
  <circle cx="16" cy="44" r="2" fill="#000" fill-opacity="0.45"/>
  <circle cx="24" cy="44" r="2" fill="#000" fill-opacity="0.45"/>
  <circle cx="32" cy="44" r="2" fill="#000" fill-opacity="0.45"/>
  <circle cx="40" cy="44" r="2" fill="#000" fill-opacity="0.45"/>
  <circle cx="48" cy="44" r="2" fill="#000" fill-opacity="0.45"/>
  <circle cx="56" cy="44" r="2" fill="#000" fill-opacity="0.45"/>
  <circle cx="64" cy="44" r="2" fill="#000" fill-opacity="0.45"/>
  <circle cx="72" cy="44" r="2" fill="#000" fill-opacity="0.45"/>
  <circle cx="80" cy="44" r="2" fill="#000" fill-opacity="0.45"/>
  <circle cx="88" cy="44" r="2" fill="#000" fill-opacity="0.45"/>
  <circle cx="96" cy="44" r="2" fill="#000" fill-opacity="0.45"/>
  <circle cx="4" cy="52" r="2" fill="#000" fill-opacity="0.45"/>
  <circle cx="12" cy="52" r="2" fill="#000" fill-opacity="0.45"/>
  <circle cx="20" cy="52" r="2" fill="#000" fill-opacity="0.45"/>
  <circle cx="28" cy="52" r="2" fill="#000" fill-opacity="0.45"/>
  <circle cx="36" cy="52" r="2" fill="#000" fill-opacity="0.45"/>
  <circle cx="44" cy="52" r="2" fill="#000" fill-opacity="0.45"/>
  <circle cx="52" cy="52" r="2" fill="#000" fill-opacity="0.45"/>
  <circle cx="60" cy="52" r="2" fill="#000" fill-opacity="0.45"/>
  <circle cx="68" cy="52" r="2" fill="#000" fill-opacity="0.45"/>
  <circle cx="76" cy="52" r="2" fill="#000" fill-opacity="0.45"/>
  <circle cx="84" cy="52" r="2" fill="#000" fill-opacity="0.45"/>
  <circle cx="92" cy="52" r="2" fill="#000" fill-opacity="0.45"/>
  <circle cx="8" cy="60" r="2" fill="#000" fill-opacity="0.45"/>
  <circle cx="16" cy="60" r="2" fill="#000" fill-opacity="0.45"/>
  <circle cx="24" cy="60" r="2" fill="#000" fill-opacity="0.45"/>
  <circle cx="32" cy="60" r="2" fill="#000" fill-opacity="0.45"/>
  <circle cx="40" cy="60" r="2" fill="#000" fill-opacity="0.45"/>
  <circle cx="48" cy="60" r="2" fill="#000" fill-opacity="0.45"/>
  <circle cx="56" cy="60" r="2" fill="#000" fill-opacity="0.45"/>
  <circle cx="64" cy="60" r="2" fill="#000" fill-opacity="0.45"/>
  <circle cx="72" cy="60" r="2" fill="#000" fill-opacity="0.45"/>
  <circle cx="80" cy="60" r="2" fill="#000" fill-opacity="0.45"/>
  <circle cx="88" cy="60" r="2" fill="#000" fill-opacity="0.45"/>
  <circle cx="96" cy="60" r="2" fill="#000" fill-opacity="0.45"/>
  <circle cx="4" cy="68" r="2" fill="#000" fill-opacity="0.45"/>
  <circle cx="12" cy="68" r="2" fill="#000" fill-opacity="0.45"/>
  <circle cx="20" cy="68" r="2" fill="#000" fill-opacity="0.45"/>
  <circle cx="28" cy="68" r="2" fill="#000" fill-opacity="0.45"/>
  <circle cx="36" cy="68" r="2" fill="#000" fill-opacity="0.45"/>
  <circle cx="44" cy="68" r="2" fill="#000" fill-opacity="0.45"/>
  <circle cx="52" cy="68" r="2" fill="#000" fill-opacity="0.45"/>
  <circle cx="60" cy="68" r="2" fill="#000" fill-opacity="0.45"/>
  <circle cx="68" cy="68" r="2" fill="#000" fill-opacity="0.45"/>
  <circle cx="76" cy="68" r="2" fill="#000" fill-opacity="0.45"/>
  <circle cx="84" cy="68" r="2" fill="#000" fill-opacity="0.45"/>
  <circle cx="92" cy="68" r="2" fill="#000" fill-opacity="0.45"/>
  <circle cx="8" cy="76" r="2" fill="#000" fill-opacity="0.45"/>
  <circle cx="16" cy="76" r="2" fill="#000" fill-opacity="0.45"/>
  <circle cx="24" cy="76" r="2" fill="#000" fill-opacity="0.45"/>
  <circle cx="32" cy="76" r="2" fill="#000" fill-opacity="0.45"/>
  <circle cx="40" cy="76" r="2" fill="#000" fill-opacity="0.45"/>
  <circle cx="48" cy="76" r="2" fill="#000" fill-opacity="0.45"/>
  <circle cx="56" cy="76" r="2" fill="#000" fill-opacity="0.45"/>
  <circle cx="64" cy="76" r="2" fill="#000" fill-opacity="0.45"/>
  <circle cx="72" cy="76" r="2" fill="#000" fill-opacity="0.45"/>
  <circle cx="80" cy="76" r="2" fill="#000" fill-opacity="0.45"/>
  <circle cx="88" cy="76" r="2" fill="#000" fill-opacity="0.45"/>
  <circle cx="96" cy="76" r="2" fill="#000" fill-opacity="0.45"/>
  <circle cx="4" cy="84" r="2" fill="#000" fill-opacity="0.45"/>
  <circle cx="12" cy="84" r="2" fill="#000" fill-opacity="0.45"/>
  <circle cx="20" cy="84" r="2" fill="#000" fill-opacity="0.45"/>
  <circle cx="28" cy="84" r="2" fill="#000" fill-opacity="0.45"/>
  <circle cx="36" cy="84" r="2" fill="#000" fill-opacity="0.45"/>
  <circle cx="44" cy="84" r="2" fill="#000" fill-opacity="0.45"/>
  <circle cx="52" cy="84" r="2" fill="#000" fill-opacity="0.45"/>
  <circle cx="60" cy="84" r="2" fill="#000" fill-opacity="0.45"/>
  <circle cx="68" cy="84" r="2" fill="#000" fill-opacity="0.45"/>
  <circle cx="76" cy="84" r="2" fill="#000" fill-opacity="0.45"/>
  <circle cx="84" cy="84" r="2" fill="#000" fill-opacity="0.45"/>
  <circle cx="92" cy="84" r="2" fill="#000" fill-opacity="0.45"/>
  <circle cx="8" cy="92" r="2" fill="#000" fill-opacity="0.45"/>
  <circle cx="16" cy="92" r="2" fill="#000" fill-opacity="0.45"/>
  <circle cx="24" cy="92" r="2" fill="#000" fill-opacity="0.45"/>
  <circle cx="32" cy="92" r="2" fill="#000" fill-opacity="0.45"/>
  <circle cx="40" cy="92" r="2" fill="#000" fill-opacity="0.45"/>
  <circle cx="48" cy="92" r="2" fill="#000" fill-opacity="0.45"/>
  <circle cx="56" cy="92" r="2" fill="#000" fill-opacity="0.45"/>
  <circle cx="64" cy="92" r="2" fill="#000" fill-opacity="0.45"/>
  <circle cx="72" cy="92" r="2" fill="#000" fill-opacity="0.45"/>
  <circle cx="80" cy="92" r="2" fill="#000" fill-opacity="0.45"/>
  <circle cx="88" cy="92" r="2" fill="#000" fill-opacity="0.45"/>
  <circle cx="96" cy="92" r="2" fill="#000" fill-opacity="0.45"/>
</svg>
